<svg height="367pt" viewBox="-36 0 367 367.76558" width="367pt" xmlns="http://www.w3.org/2000/svg" xmlns:xlink="http://www.w3.org/1999/xlink"><linearGradient id="a"><stop offset="0" stop-color="#4761ac"/><stop offset=".1893" stop-color="#496db4"/><stop offset=".5319" stop-color="#4d8dca"/><stop offset=".986" stop-color="#54c0ee"/><stop offset="1" stop-color="#54c2ef"/></linearGradient><linearGradient id="b" gradientTransform="matrix(1.000634 0 0 -1.000634 -36.447212 355.715803)" gradientUnits="userSpaceOnUse" x1="-14.2307" x2="386.7126" xlink:href="#a" y1="171.6075" y2="171.6075"/><linearGradient id="c" gradientTransform="matrix(1.000634 0 0 -1.000634 -36.447212 355.715803)" gradientUnits="userSpaceOnUse" x1="-14.2307" x2="386.7126" xlink:href="#a" y1="281.8317" y2="281.8317"/><linearGradient id="d" gradientTransform="matrix(1.000634 0 0 -1.000634 -36.447212 355.715803)" gradientUnits="userSpaceOnUse" x1="-14.2307" x2="386.7126" xlink:href="#a" y1="223.2981" y2="223.2981"/><linearGradient id="e" gradientTransform="matrix(1.000634 0 0 -1.000634 -36.447212 355.715803)" gradientUnits="userSpaceOnUse" x1="-14.2307" x2="386.7126" xlink:href="#a" y1="318.5952" y2="318.5952"/><linearGradient id="f" gradientTransform="matrix(1.000634 0 0 -1.000634 -36.447218 355.715803)" gradientUnits="userSpaceOnUse" x1="-14.2307" x2="386.7126" xlink:href="#a" y1="318.5952" y2="318.5952"/><linearGradient id="g" gradientTransform="matrix(1.000634 0 0 -1.000634 -36.447212 355.715803)" gradientUnits="userSpaceOnUse" x1="-14.2307" x2="386.7126" xlink:href="#a" y1="287.9589" y2="287.9589"/><linearGradient id="h" gradientTransform="matrix(1.000634 0 0 -1.000634 -36.447212 355.715803)" gradientUnits="userSpaceOnUse" x1="-14.2307" x2="386.7126" xlink:href="#a" y1="263.4499" y2="263.4499"/><linearGradient id="i" gradientTransform="matrix(1.000634 0 0 -1.000634 -36.447212 355.715803)" gradientUnits="userSpaceOnUse" x1="-14.2307" x2="386.7126" xlink:href="#a" y1="275.7044" y2="275.7044"/><linearGradient id="j" gradientTransform="matrix(1.000634 0 0 -1.000634 -36.447212 355.715803)" gradientUnits="userSpaceOnUse" x1="-14.2307" x2="386.7126" xlink:href="#a" y1="153.1595" y2="153.1595"/><linearGradient id="k" gradientTransform="matrix(1.000634 0 0 -1.000634 -36.447212 355.715803)" gradientUnits="userSpaceOnUse" x1="-14.2307" x2="386.7126" xlink:href="#a" y1="128.6505" y2="128.6505"/><linearGradient id="l" gradientTransform="matrix(1.000634 0 0 -1.000634 -36.447212 355.715803)" gradientUnits="userSpaceOnUse" x1="-14.2307" x2="386.7126" xlink:href="#a" y1="140.905" y2="140.905"/><linearGradient id="m" gradientTransform="matrix(1.000634 0 0 -1.000634 -36.447212 355.715803)" gradientUnits="userSpaceOnUse" x1="-14.2307" x2="386.7126" xlink:href="#a" y1="226.6864" y2="226.6864"/><linearGradient id="n" gradientTransform="matrix(1.000634 0 0 -1.000634 -36.447212 355.715803)" gradientUnits="userSpaceOnUse" x1="-14.2307" x2="386.7126" xlink:href="#a" y1="202.1775" y2="202.1775"/><linearGradient id="o" gradientTransform="matrix(1.000634 0 0 -1.000634 -36.447212 355.715803)" gradientUnits="userSpaceOnUse" x1="-14.2307" x2="386.7126" xlink:href="#a" y1="214.432" y2="214.432"/><path d="m242.957031 148.332031c-1.683593-1.136719-3.824219-1.371093-5.714843-.617187l-25.65625 10.265625c36.457031-35.367188 37.34375-93.589844 1.980468-130.046875-35.367187-36.457032-93.589844-37.34375-130.046875-1.980469-36.457031 35.367187-37.34375 93.589844-1.976562 130.046875.648437.667969 1.308593 1.328125 1.976562 1.976562l-25.65625-10.261718c-3.144531-1.257813-6.714843.273437-7.96875 3.417968-.289062.726563-.4375 1.496094-.4375 2.277344v159.410156c.03125 30.460938 24.71875 55.144532 55.179688 55.179688h85.832031c30.464844-.035156 55.148438-24.722656 55.183594-55.179688v-159.410156c0-2.035156-1.011719-3.9375-2.695313-5.078125zm-175.109375-56.234375c0-44.019531 35.683594-79.703125 79.703125-79.703125s79.707031 35.683594 79.707031 79.703125c0 44.019532-35.6875 79.707032-79.707031 79.707032-43.996093-.050782-79.652343-35.707032-79.703125-79.707032zm-6.128906 70.367188 69.324219 27.730468-30.898438 12.359376-23.421875-11.710938-5.484375 10.96875 13.671875 6.835938-23.191406 9.277343zm171.667969 140.769531-71.003907-32.769531-5.136718 11.136718 75.949218 35.050782c-2.003906 22.113281-20.523437 39.054687-42.726562 39.085937h-85.832031c-23.691407-.027343-42.890625-19.226562-42.917969-42.917969v-38.800781l131.070312-53.621093-4.636718-11.351563-126.433594 51.722656v-29.632812l171.671875-68.671875v140.769531zm0 0" fill="url(#b)"/><path d="m98.503906 67.574219h24.523438v12.261719h-24.523438zm0 0" fill="url(#c)"/><path d="m172.078125 67.574219h24.523437v12.261719h-24.523437zm0 0" fill="url(#c)"/><path d="m147.554688 128.554688-16.457032-5.480469-3.875 11.625 20.332032 6.78125 20.328124-6.78125-3.875-11.625zm0 0" fill="url(#d)"/><path d="m111.414062 46.4375 12.261719-24.523438 10.96875 5.484376-12.261719 24.523437zm0 0" fill="url(#e)"/><path d="m135.9375 46.4375 12.261719-24.523438 10.96875 5.484376-12.261719 24.523437zm0 0" fill="url(#e)"/><path d="m160.460938 46.4375 12.261718-24.523438 10.96875 5.484376-12.261718 24.523437zm0 0" fill="url(#f)"/><path d="m270.175781 61.445312h12.261719v12.261719h-12.261719zm0 0" fill="url(#g)"/><path d="m270.175781 85.96875h12.261719v12.261719h-12.261719zm0 0" fill="url(#h)"/><path d="m257.914062 73.707031h12.261719v12.261719h-12.261719zm0 0" fill="url(#i)"/><path d="m282.4375 73.707031h12.261719v12.261719h-12.261719zm0 0" fill="url(#i)"/><path d="m270.175781 196.328125h12.261719v12.261719h-12.261719zm0 0" fill="url(#j)"/><path d="m270.175781 220.851562h12.261719v12.261719h-12.261719zm0 0" fill="url(#k)"/><path d="m257.914062 208.589844h12.261719v12.261718h-12.261719zm0 0" fill="url(#l)"/><path d="m282.4375 208.589844h12.261719v12.261718h-12.261719zm0 0" fill="url(#l)"/><path d="m12.667969 122.753906h12.261719v12.261719h-12.261719zm0 0" fill="url(#m)"/><path d="m12.667969 147.277344h12.261719v12.261718h-12.261719zm0 0" fill="url(#n)"/><g fill="url(#o)"><path d="m.40625 135.015625h12.261719v12.261719h-12.261719zm0 0"/><path d="m24.929688 135.015625h12.261718v12.261719h-12.261718zm0 0"/></g></svg>