<svg height="480pt" viewBox="-48 0 480 480.04752" width="480pt" xmlns="http://www.w3.org/2000/svg" xmlns:xlink="http://www.w3.org/1999/xlink"><linearGradient id="a"><stop offset="0" stop-color="#4761ac"/><stop offset="1" stop-color="#54c2ef"/></linearGradient><linearGradient id="b" gradientUnits="userSpaceOnUse" x1="-63.97624" x2="434.34376" xlink:href="#a" y1="240.003729" y2="240.003729"/><linearGradient id="c" gradientUnits="userSpaceOnUse" x1="-63.97624" x2="434.34376" xlink:href="#a" y1="232.003729" y2="232.003729"/><linearGradient id="d" gradientUnits="userSpaceOnUse" x1="-63.97624" x2="434.34376" xlink:href="#a" y1="144.003729" y2="144.003729"/><linearGradient id="e" gradientUnits="userSpaceOnUse" x1="-63.97624" x2="434.34376" xlink:href="#a" y1="228.003729" y2="228.003729"/><linearGradient id="f" gradientUnits="userSpaceOnUse" x1="-63.97624" x2="434.34376" xlink:href="#a" y1="88.003729" y2="88.003729"/><linearGradient id="g" gradientUnits="userSpaceOnUse" x1="-63.97624" x2="434.34376" xlink:href="#a" y1="392.003729" y2="392.003729"/><linearGradient id="h" gradientUnits="userSpaceOnUse" x1="-63.97624" x2="434.34376" xlink:href="#a" y1="360.003729" y2="360.003729"/><linearGradient id="i" gradientUnits="userSpaceOnUse" x1="-63.97624" x2="434.34376" xlink:href="#a" y1="376.003729" y2="376.003729"/><path d="m24.023438 425.53125v46.472656c-.011719 2.777344 1.414062 5.363282 3.773437 6.832032s5.308594 1.605468 7.792969.367187l28.480468-14.214844 28.480469 14.214844c2.253907 1.125 4.902344 1.125 7.152344 0l28.417969-14.214844 28.40625 14.214844c2.253906 1.121094 4.90625 1.121094 7.160156 0l28.410156-14.214844 28.421875 14.214844c2.25 1.125 4.902344 1.125 7.152344 0l28.414063-14.214844 28.417968 14.214844c2.25 1.125 4.902344 1.125 7.152344 0l28.40625-14.214844 28.386719 14.214844c2.484375 1.242187 5.4375 1.105469 7.800781-.363281 2.359375-1.46875 3.789062-4.054688 3.773438-6.835938v-46.472656c3.886718-9.945312 24-67.199219 24-185.527344s-20.113282-175.585937-24-185.527344v-46.472656c0-2.769531-1.433594-5.34375-3.789063-6.800781-2.355469-1.460937-5.296875-1.59375-7.777344-.359375l-28.480469 14.214844-28.480468-14.214844c-2.25-1.125-4.902344-1.125-7.152344 0l-28.414062 14.214844-28.410157-14.214844c-2.253906-1.121094-4.90625-1.121094-7.160156 0l-28.40625 14.214844-28.425781-14.214844c-2.25-1.125-4.898438-1.125-7.152344 0l-28.414062 14.214844-28.417969-14.214844c-2.25-1.125-4.898438-1.125-7.152344 0l-28.367187 14.214844-28.421876-14.214844c-2.480468-1.238281-5.429687-1.105469-7.785156.351562-2.359375 1.460938-3.792968 4.035157-3.792968 6.808594v46.472656c-3.886719 9.941407-24.0000005 67.199219-24.0000005 185.527344s20.1132815 175.582032 24.0000005 185.527344zm320 33.519531-20.382813-10.207031c-2.253906-1.125-4.902344-1.125-7.152344 0l-28.410156 14.214844-28.414063-14.214844c-2.25-1.125-4.902343-1.125-7.152343 0l-28.414063 14.214844-28.425781-14.214844c-2.25-1.125-4.902344-1.125-7.152344 0l-28.40625 14.214844-28.417969-14.214844c-2.253906-1.121094-4.90625-1.121094-7.160156 0l-28.40625 14.214844-28.488281-14.214844c-2.246094-1.121094-4.890625-1.121094-7.136719 0l-20.480468 10.222656v-27.0625h304zm2.398437-43.046875h-308.796875c-5.503906-15.945312-21.601562-71.777344-21.601562-176 0-103.824218 16.121093-160 21.601562-176h308.839844c5.464844 15.945313 21.597656 71.777344 21.597656 176-.039062 103.824219-16.160156 160-21.640625 176zm-306.398437-395.046875 20.382812 10.246094c2.253906 1.125 4.902344 1.125 7.152344 0l28.410156-14.214844 28.414062 14.214844c2.253907 1.125 4.902344 1.125 7.152344 0l28.417969-14.214844 28.421875 14.214844c2.253906 1.125 4.902344 1.125 7.152344 0l28.410156-14.214844 28.414062 14.214844c2.265626 1.132813 4.933594 1.132813 7.199219 0l28.410157-14.214844 28.445312 14.214844c2.25 1.121094 4.890625 1.121094 7.136719 0l20.480469-10.261719v27.0625h-304zm0 0" fill="url(#b)"/><path d="m343.886719 216.003906h-.128907c-2.121093.035156-4.144531.910156-5.621093 2.4375-1.476563 1.523438-2.285157 3.574219-2.25 5.699219.089843 5.144531.136719 10.433594.136719 15.863281 0 4.417969 3.582031 8 8 8 4.417968 0 8-3.582031 8-8 0-5.507812-.046876-10.886718-.136719-16.136718-.074219-4.363282-3.632813-7.863282-8-7.863282zm0 0" fill="url(#c)"/><path d="m328.480469 80.003906h-128.457031c-4.417969 0-8 3.582032-8 8 0 4.417969 3.582031 8 8 8h122.167968c7.511719 34.3125 11.855469 69.242188 12.984375 104.351563.1875 4.28125 3.714844 7.652343 8 7.648437h.359375c4.414063-.195312 7.835938-3.929687 7.640625-8.34375-1.136719-38.273437-6.140625-76.335937-14.9375-113.601562-.890625-3.558594-4.089843-6.054688-7.757812-6.054688zm0 0" fill="url(#d)"/><path d="m208.023438 208.003906h-32c-4.417969 0-8 3.582032-8 8 0 4.417969 3.582031 8 8 8h32c8.835937 0 16 7.164063 16 16 0 4.417969 3.582031 8 8 8 4.417968 0 8-3.582031 8-8 0-17.671875-14.328126-32-32-32zm0 0" fill="url(#e)"/><path d="m315.414062 192.804688c-2.808593-1.324219-6.128906-.898438-8.519531 1.085937l-36.839843 30.707031c-7.085938-28.507812-32.65625-48.539062-62.03125-48.59375h-32c-29.363282.050782-54.929688 20.0625-62.03125 48.550782l-36.839844-30.703126c-2.386719-1.992187-5.710938-2.421874-8.523438-1.105468-2.8125 1.320312-4.609375 4.148437-4.605468 7.257812v80c.003906 3.101563 1.796874 5.925782 4.609374 7.238282 1.058594.503906 2.21875.761718 3.390626.761718 1.871093 0 3.6875-.65625 5.128906-1.847656l36.839844-30.703125c7.101562 28.488281 32.667968 48.5 62.03125 48.550781h32c29.363281-.050781 54.929687-20.0625 62.03125-48.550781l36.839843 30.703125c1.445313 1.191406 3.257813 1.847656 5.128907 1.847656 1.171874 0 2.332031-.257812 3.390624-.761718 2.8125-1.3125 4.609376-4.136719 4.609376-7.238282v-80c-.015626-3.089844-1.8125-5.890625-4.609376-7.199218zm-235.390624 70.117187v-45.839844l27.496093 22.921875zm128 25.082031h-32c-26.507813 0-48-21.492187-48-48 0-26.511718 21.492187-48 48-48h32c26.511718 0 48 21.488282 48 48 0 26.507813-21.488282 48-48 48zm96-25.082031-27.503907-22.917969 27.503907-22.921875zm0 0" fill="url(#b)"/><path d="m152.023438 96.003906h16c4.417968 0 8-3.582031 8-8 0-4.417968-3.582032-8-8-8h-16c-4.417969 0-8 3.582032-8 8 0 4.417969 3.582031 8 8 8zm0 0" fill="url(#f)"/><path d="m40.023438 384.003906h16v16h-16zm0 0" fill="url(#g)"/><path d="m64.023438 352.003906h16v16h-16zm0 0" fill="url(#h)"/><path d="m80.023438 368.003906h16v16h-16zm0 0" fill="url(#i)"/></svg>