<svg id="Gradient" height="512" viewBox="0 0 512 512" width="512" xmlns="http://www.w3.org/2000/svg" xmlns:xlink="http://www.w3.org/1999/xlink"><linearGradient id="linear-gradient" gradientUnits="userSpaceOnUse" x1="256" x2="256" y1="471.971" y2="120.007"><stop offset="0" stop-color="#12c2e9"/><stop offset=".5" stop-color="#c471ed"/><stop offset="1" stop-color="#f64f59"/></linearGradient><path d="m488 232.02h-160v-63.995a24.114 24.114 0 0 0 -9.6-19.2l-32-24a24 24 0 0 0 -38.4 19.2v95.1c-23.253-33.354-61.2-55.125-104-55.125-70.58 0-128 59.208-128 131.985a134.374 134.374 0 0 0 23.333 75.986h-15.333a8 8 0 0 0 -8 8v48a24.027 24.027 0 0 0 24 24h448a8 8 0 0 0 8-8v-223.951a8 8 0 0 0 -8-8zm-8 16v16h-152v-16zm-128 63.951a16 16 0 1 1 -16 16 16.018 16.018 0 0 1 16-16zm-88 80h-15.333a133.935 133.935 0 0 0 22.803-63.971l48.53-.013v120.013a8 8 0 0 1 -7.848 7.991h-41.537a23.883 23.883 0 0 0 1.385-8.02v-48a8 8 0 0 0 -8-8zm49.754-95.985 4 16-45.817.014a136.049 136.049 0 0 0 -1.405-16.012zm-45.333-159.112a7.856 7.856 0 0 1 8.379.755l32 24a8.037 8.037 0 0 1 3.2 6.4v47.967h-48v-71.968a7.855 7.855 0 0 1 4.421-7.154zm-4.421 95.118h48v47.994h-44.84q-1.391-5.05-3.16-9.931zm-232 83.993c0-63.954 50.243-115.985 112-115.985s112 52.031 112 115.985a118 118 0 0 1 -27.391 75.986h-31.609a96 96 0 1 0 -106.006 0h-31.603a118 118 0 0 1 -27.391-75.986zm88 91.986h48v8a8.009 8.009 0 0 1 -8 8h-32a8.009 8.009 0 0 1 -8-8zm24-16a80 80 0 1 1 80-80 80.091 80.091 0 0 1 -80 80zm-112 56v-40h72v8a24.027 24.027 0 0 0 24 24h32a24.027 24.027 0 0 0 24-24v-8h72v40a8.009 8.009 0 0 1 -8 8h-208a8.009 8.009 0 0 1 -8-8zm302.628 8.019a23.9 23.9 0 0 0 1.372-7.99v-12.334a32 32 0 1 0 0-55.39v-24.61a32 32 0 1 0 -4-52.652l-4-16.014v-6.984h152v175.956zm1.372-48.019a16 16 0 1 1 16 16 16.018 16.018 0 0 1 -16-16zm96-111.971a32 32 0 1 0 32 32 32.036 32.036 0 0 0 -32-32zm0 48a16 16 0 1 1 16-16 16.019 16.019 0 0 1 -16 16zm0 32a32 32 0 1 0 32 32 32.036 32.036 0 0 0 -32-32zm0 48a16 16 0 1 1 16-16 16.019 16.019 0 0 1 -16 16z" fill="url(#linear-gradient)"/></svg>