<svg height="512" viewBox="0 0 512 512" width="512" xmlns="http://www.w3.org/2000/svg" xmlns:xlink="http://www.w3.org/1999/xlink"><linearGradient id="a" gradientUnits="userSpaceOnUse" x1=".955" x2="506.565" y1="492.849" y2="-12.76" data-name="New Gradient Swatch 1"><stop offset="0" stop-color="#003f8a"/><stop offset=".518" stop-color="#00d7df"/><stop offset="1" stop-color="#006df0"/></linearGradient><linearGradient id="b" x1="32.053" x2="537.662" xlink:href="#a" y1="523.947" y2="18.338"/><linearGradient id="c" x1="60.053" x2="565.662" xlink:href="#a" y1="551.947" y2="46.338"/><linearGradient id="d" x1="-1.947" x2="503.662" xlink:href="#a" y1="489.947" y2="-15.662"/><linearGradient id="e" x1="-33.947" x2="471.662" xlink:href="#a" y1="457.947" y2="-47.662"/><linearGradient id="f" x1="18.053" x2="523.662" xlink:href="#a" y1="509.947" y2="4.338"/><g><path d="m368 136a24.011 24.011 0 0 1 -23.14-30.38 8 8 0 0 0 -6.59-10.03 40.151 40.151 0 0 1 -34.27-39.59 39.645 39.645 0 0 1 7.83-23.77 8 8 0 0 0 -2.89-11.94 118.75 118.75 0 0 0 -52.94-12.29 120.134 120.134 0 0 0 -120 120v232a32.03 32.03 0 0 0 32 32h56v80a32 32 0 0 0 64 0v-80h56a32.03 32.03 0 0 0 32-32v-216a8 8 0 0 0 -8-8zm-96 336a16 16 0 0 1 -32 0v-80h32zm88-112a16.021 16.021 0 0 1 -16 16h-176a16.021 16.021 0 0 1 -16-16v-232a104.112 104.112 0 0 1 104-104 102.889 102.889 0 0 1 37.82 7.09 55.584 55.584 0 0 0 -5.82 24.91 56.3 56.3 0 0 0 40.07 53.69c-.05.77-.07 1.54-.07 2.31a40.079 40.079 0 0 0 32 39.2z" fill="url(#a)"/><path d="m224 352h-56a8 8 0 0 0 0 16h56a8 8 0 0 0 0-16z" fill="url(#b)"/><path d="m256 352h-8a8 8 0 0 0 0 16h8a8 8 0 0 0 0-16z" fill="url(#c)"/><path d="m302.343 174.343-104 104a8 8 0 0 0 11.314 11.314l104-104a8 8 0 0 0 -11.314-11.314z" fill="url(#d)"/><path d="m200 232a7.976 7.976 0 0 0 5.657-2.343l48-48a8 8 0 0 0 -11.314-11.314l-48 48a8 8 0 0 0 5.657 13.657z" fill="url(#e)"/><path d="m278.343 238.343-24 24a8 8 0 0 0 11.314 11.314l24-24a8 8 0 0 0 -11.314-11.314z" fill="url(#f)"/></g></svg>