<?xml version="1.0"?>
<svg xmlns="http://www.w3.org/2000/svg" xmlns:xlink="http://www.w3.org/1999/xlink" viewBox="0 0 512 512" width="512" height="512"><defs><linearGradient id="linear-gradient" x1="106.408" y1="417.704" x2="439.713" y2="84.399" gradientUnits="userSpaceOnUse"><stop offset="0" stop-color="#41dfd0"/><stop offset="1" stop-color="#ee83ef"/></linearGradient></defs><g id="gradient"><path d="M190.455,140.955l-14.716-14.934A372.974,372.974,0,0,1,133,73.957L121.219,56.614A38,38,0,0,0,65.674,48.6L29.889,77.971a38,38,0,0,0-2.956,56.043l14.715,14.934a372.99,372.99,0,0,1,42.739,52.063l11.781,17.343a37.619,37.619,0,0,0,30.577,16.615,7.924,7.924,0,0,0,.683.989l30.456,37.1a8,8,0,0,0,5.4,2.885c.262.026.523.038.783.038a8,8,0,0,0,5.077-1.816l61.834-50.76a8,8,0,0,0,1.107-11.26l-30.456-37.1a7.964,7.964,0,0,0-.827-.854,37.707,37.707,0,0,0,.532-4.564A38.086,38.086,0,0,0,190.455,140.955Zm-66,77.821a21.76,21.76,0,0,1-15.055-9.412L97.622,192.021a388.978,388.978,0,0,0-44.577-54.3L38.33,122.784a22,22,0,0,1,1.712-32.446L75.827,60.962A22,22,0,0,1,107.984,65.6l11.781,17.343a389.019,389.019,0,0,0,44.577,54.3l14.716,14.935a22,22,0,0,1-1.713,32.444L141.56,214.006A21.766,21.766,0,0,1,124.458,218.776Zm40.717,37.947-20.3-24.734,6.184-5.076,20.3,24.733Zm18.551-15.229h0l-20.3-24.733,12.366-10.151,20.3,24.733h0Zm30.917-25.379-6.184,5.076h0l-20.3-24.733,6.182-5.075ZM484.4,339.966a379.36,379.36,0,0,1-4.4-57.492V128a8,8,0,0,0-8-8H344a8,8,0,0,0-8,8V238.411a27.358,27.358,0,0,0-28.545-9.7l-.682.179a27.274,27.274,0,0,0-16.841,12.954A27.281,27.281,0,0,0,268.9,238.83l-.68.179a27.281,27.281,0,0,0-9.306,4.446l-15.732-6.813a8,8,0,1,0-6.358,14.681l12.438,5.387a27.127,27.127,0,0,0-.529,15.651l.179.684a27.276,27.276,0,0,0,12.955,16.841,27.285,27.285,0,0,0-3.016,21.035l.179.68A27.349,27.349,0,0,0,285.4,331.993a27.491,27.491,0,0,0,6.98-.906l.683-.179a27.274,27.274,0,0,0,16.84-12.955,27.258,27.258,0,0,0,9.556,3.532,109.29,109.29,0,0,1-24.308,27.349l-14.529,11.624a146.77,146.77,0,0,1-45.417,24.707l-47.482,15.827A40.544,40.544,0,0,0,200.544,480H332.523a205.136,205.136,0,0,0,40.145-3.975,87.334,87.334,0,0,1,38.071.906A102.836,102.836,0,0,0,435.669,480,60.4,60.4,0,0,0,496,419.67V416a8.015,8.015,0,0,0-.093-1.217ZM264.385,268.983l-.179-.683a11.313,11.313,0,0,1,8.075-13.816l.68-.178a11.3,11.3,0,0,1,12.345,4.756l.8,1.227a23.886,23.886,0,0,0-10.06,17.207l-1.454-.095A11.3,11.3,0,0,1,264.385,268.983Zm33.035,36.243A11.3,11.3,0,0,1,289,315.433l-.682.178a11.313,11.313,0,0,1-13.816-8.075l-.178-.68a11.3,11.3,0,0,1,4.759-12.345l1.219-.8a23.875,23.875,0,0,0,17.213,10.05Zm9.4-21.29a8,8,0,1,1-13.815-8.072h0a7.949,7.949,0,0,1,4.876-3.7,8.071,8.071,0,0,1,2.044-.265,8,8,0,0,1,6.894,12.04Zm-4.5-27.922.094-1.44a11.3,11.3,0,0,1,8.419-10.207l.684-.179a11.312,11.312,0,0,1,13.814,8.072l.179.683a11.3,11.3,0,0,1-4.759,12.345l-1.22.8a24,24,0,0,0-17.211-10.07Zm12.207,44.721-.8-1.224a23.877,23.877,0,0,0,10.06-17.208l1.454.1a11.3,11.3,0,0,1,10.208,8.421l.178.68a11.312,11.312,0,0,1-8.064,13.813l-.691.181A11.293,11.293,0,0,1,314.529,300.735ZM480,419.67A44.381,44.381,0,0,1,435.669,464a86.873,86.873,0,0,1-21.049-2.591,103.4,103.4,0,0,0-45.09-1.073A189.09,189.09,0,0,1,332.523,464H200.544a24.544,24.544,0,0,1-7.762-47.828l47.483-15.827a162.752,162.752,0,0,0,50.352-27.393l14.529-11.624a125.427,125.427,0,0,0,35-44.424,27.367,27.367,0,0,0,10.958-29.466v0l-.179-.68c-.192-.734-.421-1.449-.669-2.155A125.312,125.312,0,0,0,352,263.843V136H464V282.474a395.338,395.338,0,0,0,4.583,59.925L480,416.612Zm-40.97-73.326a30.663,30.663,0,0,1,0,43.312,8,8,0,0,1-11.315-11.312,14.646,14.646,0,0,0,0-20.688,8,8,0,0,1,11.315-11.312ZM151.5,328.168a27.14,27.14,0,0,0-19.682-8,27.278,27.278,0,0,0-8.005-19.682l-.5-.5a27.314,27.314,0,0,0-38.627,0l-.5.5a27.282,27.282,0,0,0-8.005,19.681,27.121,27.121,0,0,0-19.681,8l-.5.5A27.313,27.313,0,0,0,56,367.3l.5.5A27.29,27.29,0,0,0,76.181,375.8a27.276,27.276,0,0,0,8.006,19.681l.5.5a27.312,27.312,0,0,0,38.626,0l.5-.5a27.276,27.276,0,0,0,8.006-19.681,27.238,27.238,0,0,0,19.681-8l.5-.5a27.314,27.314,0,0,0,0-38.628ZM82.177,357.95l-1.3.652a11.3,11.3,0,0,1-13.061-2.121l-.5-.5a11.314,11.314,0,0,1,0-16l.5-.5a11.3,11.3,0,0,1,13.059-2.121l1.305.653a23.909,23.909,0,0,0,0,19.936ZM95.5,311.8l.5-.5a11.313,11.313,0,0,1,16,0l.5.5a11.3,11.3,0,0,1,2.119,13.06l-.652,1.3a23.9,23.9,0,0,0-19.934,0l-.652-1.305A11.3,11.3,0,0,1,95.5,311.8ZM112,347.982a8,8,0,1,1-8-8A8.009,8.009,0,0,1,112,347.982Zm.5,36.186-.5.5a11.314,11.314,0,0,1-16,0l-.5-.5a11.3,11.3,0,0,1-2.119-13.059l.651-1.3a23.919,23.919,0,0,0,19.936,0l.651,1.3A11.3,11.3,0,0,1,112.5,384.168Zm28.187-28.187-.5.5a11.3,11.3,0,0,1-13.06,2.12l-1.3-.652a23.907,23.907,0,0,0,0-19.935l1.3-.653a11.3,11.3,0,0,1,13.06,2.12l.5.5a11.314,11.314,0,0,1,0,16Zm80.97-93.656,16,16a8,8,0,0,1-11.314,11.315l-16-16a8,8,0,1,1,11.314-11.315Zm-22.5,26.079,8,16a8,8,0,1,1-14.31,7.157l-8-16a8,8,0,1,1,14.31-7.157Z" style="fill:url(#linear-gradient)"/></g></svg>
