<svg height="452pt" viewBox="-33 0 452 452" width="452pt" xmlns="http://www.w3.org/2000/svg" xmlns:xlink="http://www.w3.org/1999/xlink"><linearGradient id="a"><stop offset="0" stop-color="#00efd1"/><stop offset="1" stop-color="#00acea"/></linearGradient><linearGradient id="b" gradientUnits="userSpaceOnUse" x1="193" x2="193" xlink:href="#a" y1="-21.355" y2="466.51"/><linearGradient id="c" gradientUnits="userSpaceOnUse" x1="209.5" x2="209.5" xlink:href="#a" y1="-21.355" y2="466.51"/><linearGradient id="d" gradientUnits="userSpaceOnUse" x1="209.021" x2="209.021" xlink:href="#a" y1="-21.355" y2="466.51"/><path d="m379 407h-169.0625l7.492188-52.261719c.339843-2.394531-.546876-4.796875-2.363282-6.394531-1.800781-1.574219-4.28125-2.117188-6.578125-1.449219l-22.898437 6.847657-19.472656-10.738282c-2.101563-1.15625-4.652344-1.15625-6.753907 0l-18.664062 10.273438-18.664063-10.277344c-.832031-.453125-1.746094-.738281-2.6875-.828125 14.058594-1.707031 24.636719-13.632813 24.652344-27.796875.007812-6.625 5.375-11.992188 12-12 22.632812-.023438 40.976562-18.367188 41-41-.054688-.769531.207031-1.523438.730469-2.09375.519531-.566406 1.25-.894531 2.019531-.90625 9.386719-.019531 18.378906-3.773438 24.992188-10.433594 6.613281-6.664062 10.304687-15.679687 10.257812-25.066406v-19.421875c8.136719-4.828125 13.085938-13.617187 13-23.078125v-14c0-3.867188-2.632812-7.375-6.5-7.375h-64c-4.035156.136719-7.296875 3.339844-7.5 7.375v14c.101562 9.203125 4.847656 17.734375 12.617188 22.671875-1.332032 13.78125-12.898438 24.304687-26.742188 24.328125-6.867188-.03125-13.464844 2.671875-18.332031 7.515625-4.867188 4.847656-7.605469 11.429687-7.605469 18.296875.003906 3.6875-1.46875 7.222656-4.085938 9.816406-2.617187 2.59375-6.164062 4.03125-9.851562 3.996094h-4c-20.398438 0-37 16.972656-37 37.375v1c.027344 9.769531 3.945312 19.128906 10.886719 26.003906 6.945312 6.871094 16.34375 10.695313 26.113281 10.621094h4c.300781 0 .601562.175781.894531.164062-.566406.179688-1.109375.425782-1.617187.734376l-18.660156 10.332031-18.664063-10.257813c-2.101563-1.15625-4.652344-1.152344-6.753906.007813l-19.238281 10.601562-19.035157-7.03125c-2.3125-.855469-4.90625-.429687-6.824219 1.121094-1.925781 1.628906-2.882812 4.128906-2.53125 6.628906l7.5 52.699219h-8.570312c-12.425781 0-22.5 10.074219-22.5 22.5s10.074219 22.5 22.5 22.5h356.5c3.9375-.175781 7.027344-3.433594 7-7.375v-31c-.015625-1.816406-.769531-3.550781-2.089844-4.800781-1.320312-1.25-3.09375-1.910157-4.910156-1.824219zm-195-234h50v7.375c.09375 3.355469-1.1875 6.601562-3.546875 8.988281-2.363281 2.382813-5.597656 3.699219-8.953125 3.636719h-24c-7.167969 0-13.5-5.457031-13.5-12.625zm-72 155c-6.058594.078125-11.898438-2.269531-16.214844-6.519531-4.320312-4.246094-6.761718-10.046875-6.785156-16.105469v-1c0-12.683594 10.316406-23.375 23-23.375h4c7.402344.035156 14.515625-2.878906 19.769531-8.097656 5.253907-5.21875 8.214844-12.308594 8.230469-19.714844.007812-3.171875 1.277344-6.210938 3.527344-8.445312 2.253906-2.234376 5.300781-3.480469 8.472656-3.460938 19.96875-.085938 37-14.488281 40.398438-34.167969.367187.015625.734374-.113281 1.105468-.113281h23.496094v15.875c.050781 5.675781-2.164062 11.132812-6.152344 15.167969-3.988281 4.039062-9.421875 6.316406-15.097656 6.332031-4.492188.011719-8.800781 1.808594-11.964844 4.996094-3.167968 3.191406-4.933594 7.511718-4.910156 12.003906.011719 14.890625-12.042969 26.976562-26.9375 27-6.871094-.035156-13.472656 2.671875-18.34375 7.515625-4.875 4.84375-7.617188 11.425781-7.625 18.296875-.003906 3.691406-1.484375 7.222656-4.105469 9.816406-2.625 2.59375-6.175781 4.03125-9.863281 3.996094zm124 93h11v17h-11zm-14 17h-11v-17h11zm-182.910156-74.050781 11.019531 3.980469c1.914063.6875 4.03125.511718 5.800781-.484376l18.664063-10.304687 18.660156 10.269531c2.105469 1.15625 4.65625 1.15625 6.757813-.003906l18.660156-10.285156 18.667968 10.277344c2.101563 1.160156 4.652344 1.160156 6.753907 0l18.667969-10.28125 18.664062 10.28125c1.648438.910156 3.589844 1.113281 5.390625.574218l15.214844-4.371094-6.21875 43.398438h-10.792969v-10.375c0-3.867188-3.132812-7-7-7s-7 3.132812-7 7v10.375h-24v-10.375c0-3.867188-3.132812-7-7-7s-7 3.132812-7 7v10.375h-25v-10.375c0-3.867188-3.132812-7-7-7s-7 3.132812-7 7v10.375h-24v-10.375c0-3.867188-3.132812-7-7-7s-7 3.132812-7 7v10.375h-10.785156zm-25.089844 65.550781c.003906-4.691406 3.808594-8.496094 8.5-8.5h174.5v17h-174.5c-4.691406-.003906-8.496094-3.808594-8.5-8.5zm358 8.5h-111v-17h111zm0 0" fill="url(#b)"/><path d="m177.5 141c-3.867188 0-7 3.132812-7 7s3.132812 7 7 7h64c3.867188 0 7-3.132812 7-7s-3.132812-7-7-7zm0 0" fill="url(#c)"/><path d="m147.046875 125.621094c2.367187 6.84375 8.832031 11.417968 16.078125 11.378906h92.75c7.261719 0 14.125-4.515625 16.125-11.378906v.046875l15.894531-47.042969c.160157-.738281.195313-1.5.105469-2.25v-69c0-3.867188-2.632812-7.375-6.5-7.375h-144c-4.035156.136719-7.296875 3.339844-7.5 7.375v69c.085938.769531.300781 1.523438.628906 2.226562zm108.828125-2.621094h-92.75c-1.296875-.039062-2.429688-.882812-2.839844-2.113281l-5.765625-16.886719h109.960938l-5.765625 16.886719c-.410156 1.230469-1.542969 2.074219-2.839844 2.113281zm-111.875-109h130v61.207031l-4.710938 14.792969h-119.578124l-5.710938-14.792969zm0 0" fill="url(#d)"/></svg>