<svg id="Layer_6" enable-background="new 0 0 64 64" height="512" viewBox="0 0 64 64" width="512" xmlns="http://www.w3.org/2000/svg" xmlns:xlink="http://www.w3.org/1999/xlink"><linearGradient id="SVGID_1_" gradientUnits="userSpaceOnUse" x1="32" x2="32" y1="63" y2="1"><stop offset="0" stop-color="#9f2fff"/><stop offset="1" stop-color="#0bb1d3"/></linearGradient><path d="m22 35.069v-.069-5h-2v1.962c-2.237-1.175-5.633-.986-6.069-.96l-.931.064v.934c0 .118.028 2.914 2.498 4.348.215.125.438.217.664.296-1.917 1.463-3.162 3.764-3.162 6.356 0 4.411 3.589 8 8 8s8-3.589 8-8c0-4.072-3.06-7.436-7-7.931zm-6.81-2.093c1.572.034 3.563.325 4.408 1.114.113.106.201.216.266.334-.938.373-2.408.75-3.362.194-.748-.433-1.123-1.094-1.312-1.642zm5.81 16.024c-3.309 0-6-2.691-6-6s2.691-6 6-6 6 2.691 6 6-2.691 6-6 6zm0-10v2c-1.103 0-2 .897-2 2h-2c0-2.206 1.794-4 4-4zm3-14h-6c-6.065 0-11 4.935-11 11v21h28v-21c0-6.065-4.935-11-11-11zm9 30h-24v-19c0-4.963 4.037-9 9-9h6c4.963 0 9 4.037 9 9zm24-4h-7.597l8.869-8.932c1.115-1.115 1.728-2.595 1.728-4.17s-.613-3.056-1.728-4.171c-1.115-1.114-2.596-1.727-4.17-1.727s-3.055.613-4.168 1.725l-8.934 8.872v-17.597c0-3.309-2.691-6-6-6h-4v-2h4v-5-1-6c0-2.355-1.645-4-4-4h-20c-2.355 0-4 1.645-4 4v6 1 5h4v2h-4c-3.309 0-6 2.691-6 6v32c0 3.309 2.691 6 6 6h28c1.507 0 2.912-.555 4.002-1.539 1.063.954 2.461 1.539 3.998 1.539h14c3.309 0 6-2.691 6-6s-2.691-6-6-6zm-5.654-15.858c1.475-1.474 4.038-1.472 5.513 0 .736.737 1.141 1.715 1.141 2.756 0 1.04-.405 2.019-1.145 2.758l-4.358 4.389c-.964-2.556-2.986-4.578-5.542-5.542zm-6.01 5.969c2.754.656 4.897 2.799 5.553 5.553l-4.306 4.336h-3.583c-.702 0-1.373.128-2 .35v-5.933zm-36.336-36.111c0-.469.145-2 2-2h20c1.855 0 2 1.531 2 2v6h-7.22l-.999-4h-7.562l-.999 4h-7.22zm14.719 6h-5.439l.501-2h4.438zm-14.719 2h24v2h-24zm4 4h16v2h-16zm22 44h-28c-2.206 0-4-1.794-4-4v-32c0-2.206 1.794-4 4-4h28c2.206 0 4 1.794 4 4v27.54c-1.224 1.099-2 2.688-2 4.46 0 1.045.27 2.028.741 2.884-.737.705-1.697 1.116-2.741 1.116zm4-4c0-2.206 1.794-4 4-4h6.001c-.624 1.055-1.001 2.448-1.001 4s.377 2.945 1.001 4h-6.001c-2.206 0-4-1.794-4-4zm18 4h-5c-.944 0-2-1.711-2-4s1.056-4 2-4h5c2.206 0 4 1.794 4 4s-1.794 4-4 4z" fill="url(#SVGID_1_)"/></svg>